<?xml version="1.0" standalone="no"?>
<!DOCTYPE svg PUBLIC "-//W3C//DTD SVG 20010904//EN"
 "http://www.w3.org/TR/2001/REC-SVG-20010904/DTD/svg10.dtd">
<svg version="1.0" xmlns="http://www.w3.org/2000/svg"
 viewBox="0 0 2600.000000 2600.000000"
 preserveAspectRatio="xMidYMid meet">
<metadata>
Created by potrace 1.15, written by Peter Selinger 2001-2017
</metadata>
<g transform="translate(0.000000,2600.000000) scale(0.100000,-0.100000)"
fill="#000000" stroke="none">
<path d="M8987 24643 c-4 -3 -7 -103 -7 -222 l-1 -216 -28 66 c-87 206 -214
301 -342 258 -87 -29 -126 -116 -115 -251 6 -70 26 -159 95 -421 53 -203 51
-643 -5 -1092 -34 -277 -148 -884 -229 -1221 -139 -583 -361 -1168 -700 -1844
-186 -372 -372 -707 -793 -1435 -363 -625 -387 -681 -386 -900 0 -103 4 -131
27 -201 100 -300 430 -547 967 -724 271 -90 468 -131 995 -210 149 -22 325
-50 393 -62 l122 -23 0 -1608 0 -1609 -57 52 c-76 70 -160 125 -257 170 -112
53 -195 74 -296 74 -99 0 -152 -19 -218 -79 -207 -186 -142 -739 163 -1400
132 -286 188 -441 340 -936 111 -361 191 -595 265 -770 l60 -142 0 -2197 0
-2197 -51 -104 c-91 -186 -95 -235 -40 -497 27 -128 56 -212 81 -227 7 -4 10
-623 10 -1876 l0 -1869 195 0 195 0 0 1869 0 1868 48 18 c101 38 165 102 262
260 178 288 305 716 435 1460 49 283 72 327 302 573 91 97 211 232 266 299
l101 122 33 -29 c60 -53 127 -61 363 -46 202 13 261 -10 322 -123 16 -28 21
-31 67 -31 69 0 171 -15 416 -60 116 -21 252 -43 303 -49 71 -9 448 -30 552
-31 13 0 15 -10 10 -60 -3 -33 -4 -60 -1 -60 3 0 15 9 27 21 l22 21 7 -67 8
-67 43 43 44 43 0 -41 c0 -74 -21 -142 -77 -251 -57 -110 -103 -221 -103 -247
0 -41 119 24 241 132 46 41 96 83 112 94 l27 20 0 -57 c0 -36 4 -54 9 -49 5 6
32 77 60 159 l49 150 -1 -460 c-2 -488 0 -522 49 -717 39 -159 49 -166 51 -37
3 183 43 358 105 458 l22 35 13 -39 c25 -73 43 -208 53 -398 5 -104 11 -190
13 -192 2 -2 14 38 27 89 47 187 108 319 160 347 17 9 22 4 44 -37 31 -63 58
-151 91 -303 15 -69 31 -131 35 -139 4 -8 10 62 13 155 3 119 10 185 22 224
16 51 18 53 32 35 49 -65 113 -231 143 -370 6 -27 16 -68 22 -90 l10 -40 38
115 c20 63 41 123 45 133 17 41 25 -13 25 -173 0 -93 4 -158 9 -150 4 8 18 60
31 115 12 55 36 134 54 175 l31 75 6 -260 c6 -247 7 -264 33 -342 15 -46 31
-83 36 -83 6 0 10 59 10 144 0 330 48 563 162 791 50 101 153 265 166 265 4 0
18 -9 32 -20 32 -25 35 -25 48 6 7 14 16 23 21 20 5 -3 19 -43 31 -88 12 -46
28 -94 35 -108 12 -23 13 -22 23 30 6 30 13 111 17 179 3 68 8 129 12 134 3 5
27 -35 53 -89 25 -54 73 -141 105 -193 53 -85 287 -404 350 -476 l26 -30 -6
55 c-10 93 -56 217 -149 400 -144 285 -174 374 -211 619 -18 124 -36 403 -28
459 l5 40 63 -67 c35 -36 67 -62 71 -58 4 4 2 63 -4 130 -7 67 -12 153 -12
191 0 60 2 67 15 56 8 -7 51 -85 94 -174 67 -134 131 -245 131 -225 0 3 -16
45 -35 93 -72 179 -115 421 -115 654 l0 136 55 -54 c36 -35 55 -49 55 -38 0 9
-14 69 -30 134 -17 64 -29 119 -26 121 6 6 85 -35 124 -64 18 -14 47 -44 64
-67 17 -22 28 -33 24 -23 -3 10 -19 78 -35 150 -54 244 -90 301 -251 397 -109
65 -150 111 -230 262 -30 57 -78 138 -107 181 l-52 77 78 0 c98 0 213 -29 313
-79 l77 -38 -64 71 c-130 146 -336 312 -497 402 -271 150 -322 181 -370 225
l-53 47 31 43 c43 62 184 173 278 220 43 21 74 39 68 39 -17 0 -227 -65 -374
-115 -73 -26 -203 -66 -288 -91 -317 -91 -418 -162 -696 -485 -156 -182 -230
-243 -309 -255 -110 -16 -188 32 -422 258 -100 98 -211 199 -245 224 -35 25
-64 47 -66 49 -1 1 4 42 13 90 19 113 19 319 -1 454 -32 215 -134 552 -210
689 -20 37 -76 121 -124 188 l-87 120 -31 140 c-122 556 -144 990 -71 1434 82
502 238 880 447 1087 65 65 92 82 229 151 103 51 177 95 220 132 35 30 90 77
121 103 86 72 140 94 262 107 162 16 220 38 322 117 144 112 323 269 359 314
19 24 52 50 78 62 137 59 245 169 426 431 91 133 172 232 348 429 203 226 293
341 378 482 159 263 231 326 611 536 319 176 398 231 773 539 524 431 764 582
1080 679 200 61 251 66 560 62 625 -10 751 -7 850 17 194 49 432 160 795 374
107 63 290 167 405 230 234 129 387 220 549 327 151 99 207 129 394 211 90 39
181 79 202 90 l38 19 136 -29 c156 -33 151 -31 276 -120 52 -37 111 -76 130
-86 50 -26 151 -25 213 4 129 58 268 276 483 757 73 164 109 225 233 390 140
188 199 339 169 429 -19 58 -55 80 -130 79 -112 0 -247 -47 -736 -255 -130
-55 -334 -138 -452 -185 -256 -101 -339 -143 -576 -295 -408 -261 -493 -297
-1058 -439 -177 -44 -472 -125 -656 -179 -768 -227 -916 -249 -1500 -216 -442
25 -665 7 -1034 -85 -354 -89 -720 -235 -1411 -564 -529 -252 -651 -306 -1085
-476 -511 -202 -1084 -525 -1558 -879 -76 -57 -127 -88 -135 -83 -6 4 -58 44
-114 90 -56 45 -124 93 -150 107 -74 37 -271 118 -448 184 -88 33 -263 101
-390 152 -542 217 -940 324 -1491 400 -121 16 -341 55 -490 85 -148 30 -272
55 -276 55 -5 0 -8 818 -8 1818 l0 1817 43 44 c23 24 85 77 138 117 169 128
214 200 212 339 -2 119 -47 235 -179 457 -77 130 -144 262 -184 363 l-30 76 0
879 0 880 -188 0 c-104 0 -192 -3 -195 -7z m-12 -6701 c-3 -3 -42 0 -87 7 -46
7 -161 15 -255 18 l-173 6 6 41 c13 87 57 251 125 462 125 387 329 1270 371
1604 11 92 13 -33 16 -1014 1 -616 0 -1121 -3 -1124z m500 -1941 c234 -91 394
-190 1012 -631 l113 -80 -26 -58 c-14 -31 -66 -158 -115 -282 -244 -616 -336
-790 -551 -1050 -122 -147 -189 -251 -228 -350 -42 -110 -57 -188 -74 -396
-23 -262 -47 -335 -155 -469 -31 -38 -61 -76 -68 -85 -10 -12 -12 353 -13
1714 0 1378 3 1727 13 1723 6 -2 48 -19 92 -36z m60 -6542 c55 -6 178 -31 274
-55 320 -81 458 -94 563 -54 28 11 52 19 53 17 6 -10 77 -338 86 -397 21 -140
-4 -261 -83 -395 -156 -264 -480 -692 -747 -988 -64 -71 -160 -178 -213 -238
l-98 -109 0 1119 0 1120 33 -4 c17 -3 77 -9 132 -16z"/>
</g>
</svg>
