<?xml version="1.0" encoding="UTF-8"?>
<svg xmlns="http://www.w3.org/2000/svg" xmlns:xlink="http://www.w3.org/1999/xlink" width="615px" height="615px" viewBox="0 0 615 615" version="1.1">
<g id="surface1">
<path style=" stroke:none;fill-rule:nonzero;fill:rgb(0%,0%,0%);fill-opacity:1;" d="M 212.578125 32.097656 C 212.484375 32.167969 212.410156 34.535156 212.410156 37.347656 L 212.386719 42.457031 L 211.726562 40.898438 C 209.667969 36.023438 206.664062 33.777344 203.636719 34.792969 C 201.578125 35.480469 200.65625 37.539062 200.914062 40.730469 C 201.058594 42.386719 201.53125 44.492188 203.164062 50.691406 C 204.417969 55.492188 204.371094 65.898438 203.042969 76.519531 C 202.242188 83.074219 199.542969 97.429688 197.628906 105.402344 C 194.339844 119.191406 189.089844 133.027344 181.070312 149.019531 C 176.671875 157.820312 172.269531 165.742188 162.3125 182.960938 C 153.726562 197.746094 153.160156 199.070312 153.183594 204.25 C 153.183594 206.6875 153.277344 207.347656 153.820312 209.003906 C 156.1875 216.101562 163.992188 221.945312 176.695312 226.128906 C 183.105469 228.257812 187.765625 229.230469 200.230469 231.097656 C 203.753906 231.617188 207.917969 232.28125 209.527344 232.566406 L 212.410156 233.109375 L 212.410156 309.203125 L 211.0625 307.972656 C 209.265625 306.316406 207.277344 305.015625 204.984375 303.953125 C 202.335938 302.699219 200.371094 302.203125 197.984375 302.203125 C 195.640625 302.203125 194.386719 302.652344 192.824219 304.070312 C 187.929688 308.46875 189.46875 321.550781 196.683594 337.1875 C 199.804688 343.949219 201.128906 347.617188 204.722656 359.324219 C 207.351562 367.863281 209.242188 373.398438 210.992188 377.539062 L 212.410156 380.898438 L 212.410156 484.832031 L 211.207031 487.292969 C 209.050781 491.691406 208.957031 492.851562 210.257812 499.050781 C 210.898438 502.078125 211.582031 504.0625 212.175781 504.417969 C 212.339844 504.511719 212.410156 519.15625 212.410156 548.792969 L 212.410156 593 L 221.636719 593 L 221.636719 504.609375 L 222.773438 504.183594 C 225.160156 503.28125 226.675781 501.769531 228.96875 498.03125 C 233.179688 491.21875 236.183594 481.09375 239.257812 463.496094 C 240.417969 456.804688 240.960938 455.761719 246.402344 449.945312 C 248.554688 447.648438 251.394531 444.457031 252.695312 442.871094 L 255.082031 439.984375 L 255.863281 440.671875 C 257.28125 441.925781 258.867188 442.113281 264.449219 441.757812 C 269.226562 441.453125 270.625 441.996094 272.066406 444.667969 C 272.445312 445.332031 272.5625 445.402344 273.652344 445.402344 C 275.285156 445.402344 277.695312 445.757812 283.492188 446.820312 C 286.234375 447.316406 289.453125 447.839844 290.660156 447.980469 C 292.335938 448.191406 301.253906 448.691406 303.714844 448.714844 C 304.023438 448.714844 304.070312 448.949219 303.953125 450.132812 C 303.882812 450.914062 303.855469 451.550781 303.929688 451.550781 C 304 451.550781 304.28125 451.339844 304.566406 451.054688 L 305.085938 450.558594 L 305.253906 452.144531 L 305.441406 453.726562 L 306.460938 452.710938 L 307.5 451.695312 L 307.5 452.664062 C 307.5 454.414062 307.003906 456.023438 305.679688 458.601562 C 304.332031 461.203125 303.242188 463.828125 303.242188 464.441406 C 303.242188 465.414062 306.058594 463.875 308.941406 461.320312 C 310.03125 460.351562 311.214844 459.359375 311.59375 459.097656 L 312.230469 458.625 L 312.230469 459.972656 C 312.230469 460.824219 312.324219 461.25 312.445312 461.132812 C 312.5625 460.988281 313.199219 459.308594 313.863281 457.371094 L 315.023438 453.824219 L 315 464.703125 C 314.949219 476.246094 315 477.050781 316.15625 481.664062 C 317.078125 485.425781 317.316406 485.589844 317.363281 482.539062 C 317.433594 478.210938 318.378906 474.070312 319.847656 471.703125 L 320.367188 470.878906 L 320.675781 471.800781 C 321.265625 473.527344 321.691406 476.71875 321.929688 481.214844 C 322.046875 483.675781 322.1875 485.707031 322.238281 485.753906 C 322.285156 485.800781 322.566406 484.855469 322.875 483.648438 C 323.988281 479.226562 325.429688 476.105469 326.660156 475.441406 C 327.0625 475.230469 327.179688 475.347656 327.699219 476.316406 C 328.433594 477.808594 329.074219 479.890625 329.851562 483.484375 C 330.207031 485.117188 330.585938 486.582031 330.679688 486.773438 C 330.773438 486.960938 330.917969 485.304688 330.988281 483.105469 C 331.058594 480.292969 331.226562 478.730469 331.507812 477.808594 C 331.886719 476.601562 331.933594 476.554688 332.265625 476.980469 C 333.425781 478.515625 334.9375 482.445312 335.648438 485.730469 C 335.789062 486.371094 336.027344 487.339844 336.167969 487.859375 L 336.40625 488.808594 L 337.304688 486.085938 C 337.777344 484.597656 338.273438 483.175781 338.367188 482.941406 C 338.769531 481.972656 338.960938 483.25 338.960938 487.03125 C 338.960938 489.234375 339.054688 490.769531 339.171875 490.582031 C 339.265625 490.390625 339.597656 489.160156 339.90625 487.859375 C 340.191406 486.558594 340.757812 484.691406 341.183594 483.722656 L 341.917969 481.945312 L 342.058594 488.097656 C 342.199219 493.941406 342.222656 494.339844 342.839844 496.1875 C 343.195312 497.273438 343.570312 498.148438 343.691406 498.148438 C 343.832031 498.148438 343.925781 496.753906 343.925781 494.742188 C 343.925781 486.9375 345.0625 481.425781 347.757812 476.035156 C 348.941406 473.644531 351.378906 469.765625 351.683594 469.765625 C 351.78125 469.765625 352.109375 469.976562 352.441406 470.238281 C 353.199219 470.828125 353.269531 470.828125 353.578125 470.097656 C 353.742188 469.765625 353.957031 469.550781 354.074219 469.625 C 354.191406 469.695312 354.523438 470.640625 354.808594 471.703125 C 355.089844 472.792969 355.46875 473.929688 355.636719 474.257812 C 355.917969 474.804688 355.941406 474.78125 356.179688 473.550781 C 356.320312 472.839844 356.488281 470.925781 356.582031 469.316406 C 356.652344 467.707031 356.769531 466.265625 356.867188 466.144531 C 356.9375 466.027344 357.503906 466.972656 358.121094 468.25 C 358.710938 469.527344 359.847656 471.585938 360.601562 472.816406 C 361.855469 474.828125 367.390625 482.371094 368.882812 484.074219 L 369.496094 484.785156 L 369.355469 483.484375 C 369.117188 481.285156 368.03125 478.351562 365.832031 474.023438 C 362.425781 467.28125 361.714844 465.175781 360.839844 459.382812 C 360.414062 456.449219 359.988281 449.847656 360.175781 448.523438 L 360.296875 447.578125 L 361.785156 449.164062 C 362.613281 450.015625 363.371094 450.628906 363.464844 450.535156 C 363.558594 450.441406 363.511719 449.042969 363.371094 447.460938 C 363.203125 445.875 363.085938 443.839844 363.085938 442.941406 C 363.085938 441.523438 363.132812 441.355469 363.441406 441.617188 C 363.628906 441.78125 364.648438 443.628906 365.664062 445.734375 C 367.25 448.902344 368.761719 451.527344 368.761719 451.054688 C 368.761719 450.984375 368.386719 449.992188 367.9375 448.855469 C 366.234375 444.621094 365.214844 438.898438 365.214844 433.386719 L 365.214844 430.167969 L 366.515625 431.445312 C 367.367188 432.273438 367.816406 432.605469 367.816406 432.34375 C 367.816406 432.132812 367.484375 430.710938 367.109375 429.175781 C 366.707031 427.660156 366.421875 426.359375 366.492188 426.3125 C 366.632812 426.171875 368.503906 427.140625 369.425781 427.828125 C 369.851562 428.160156 370.539062 428.867188 370.941406 429.410156 C 371.339844 429.933594 371.601562 430.191406 371.507812 429.957031 C 371.4375 429.71875 371.058594 428.109375 370.679688 426.40625 C 369.402344 420.636719 368.550781 419.289062 364.742188 417.015625 C 362.164062 415.480469 361.195312 414.390625 359.300781 410.820312 C 358.59375 409.472656 357.457031 407.554688 356.769531 406.539062 L 355.539062 404.71875 L 357.386719 404.71875 C 359.703125 404.71875 362.425781 405.402344 364.789062 406.585938 L 366.609375 407.484375 L 365.097656 405.804688 C 362.023438 402.351562 357.148438 398.425781 353.339844 396.296875 C 346.929688 392.75 345.726562 392.015625 344.589844 390.972656 L 343.335938 389.863281 L 344.070312 388.84375 C 345.085938 387.378906 348.421875 384.753906 350.644531 383.640625 C 351.660156 383.144531 352.394531 382.71875 352.253906 382.71875 C 351.851562 382.71875 346.882812 384.257812 343.40625 385.4375 C 341.679688 386.054688 338.605469 387 336.59375 387.59375 C 329.097656 389.746094 326.707031 391.425781 320.132812 399.0625 C 316.441406 403.367188 314.691406 404.8125 312.820312 405.097656 C 310.21875 405.472656 308.375 404.339844 302.839844 398.992188 C 300.476562 396.675781 297.847656 394.285156 297.046875 393.695312 C 296.21875 393.101562 295.53125 392.582031 295.484375 392.535156 C 295.460938 392.511719 295.578125 391.542969 295.792969 390.40625 C 296.242188 387.734375 296.242188 382.859375 295.769531 379.667969 C 295.011719 374.582031 292.597656 366.609375 290.800781 363.371094 C 290.328125 362.496094 289.003906 360.507812 287.867188 358.921875 L 285.808594 356.085938 L 285.074219 352.773438 C 282.191406 339.621094 281.671875 329.355469 283.398438 318.855469 C 285.335938 306.980469 289.027344 298.039062 293.96875 293.140625 C 295.507812 291.605469 296.144531 291.203125 299.386719 289.570312 C 301.824219 288.363281 303.574219 287.324219 304.589844 286.449219 C 305.417969 285.738281 306.71875 284.625 307.453125 284.011719 C 309.488281 282.308594 310.765625 281.789062 313.648438 281.480469 C 317.480469 281.101562 318.855469 280.582031 321.265625 278.714844 C 324.671875 276.0625 328.90625 272.351562 329.757812 271.285156 C 330.207031 270.71875 330.988281 270.101562 331.601562 269.820312 C 334.84375 268.425781 337.398438 265.820312 341.679688 259.625 C 343.832031 256.480469 345.75 254.136719 349.910156 249.476562 C 354.714844 244.132812 356.84375 241.410156 358.851562 238.074219 C 362.613281 231.855469 364.316406 230.363281 373.304688 225.398438 C 380.851562 221.234375 382.71875 219.933594 391.589844 212.648438 C 403.984375 202.453125 409.660156 198.882812 417.136719 196.585938 C 421.867188 195.144531 423.074219 195.027344 430.382812 195.121094 C 445.164062 195.355469 448.144531 195.285156 450.488281 194.71875 C 455.078125 193.558594 460.707031 190.933594 469.292969 185.871094 C 471.824219 184.382812 476.152344 181.921875 478.871094 180.429688 C 484.40625 177.378906 488.027344 175.226562 491.859375 172.695312 C 495.429688 170.355469 496.753906 169.644531 501.175781 167.707031 C 503.304688 166.785156 505.460938 165.835938 505.957031 165.578125 L 506.855469 165.128906 L 510.070312 165.8125 C 513.761719 166.59375 513.644531 166.546875 516.601562 168.652344 C 517.828125 169.527344 519.226562 170.449219 519.675781 170.6875 C 520.859375 171.300781 523.246094 171.277344 524.714844 170.589844 C 527.765625 169.21875 531.050781 164.0625 536.136719 152.6875 C 537.863281 148.804688 538.714844 147.363281 541.648438 143.460938 C 544.960938 139.011719 546.355469 135.441406 545.648438 133.3125 C 545.199219 131.941406 544.347656 131.421875 542.570312 131.445312 C 539.921875 131.445312 536.730469 132.554688 525.164062 137.476562 C 522.085938 138.777344 517.261719 140.742188 514.472656 141.851562 C 508.414062 144.242188 506.453125 145.234375 500.847656 148.828125 C 491.195312 155.003906 489.183594 155.855469 475.820312 159.214844 C 471.632812 160.253906 464.65625 162.171875 460.304688 163.449219 C 442.136719 168.816406 438.636719 169.335938 424.824219 168.558594 C 414.367188 167.964844 409.09375 168.390625 400.363281 170.566406 C 391.992188 172.671875 383.335938 176.125 366.988281 183.910156 C 354.476562 189.871094 351.589844 191.148438 341.324219 195.167969 C 329.238281 199.945312 315.683594 207.585938 304.472656 215.960938 C 302.675781 217.308594 301.46875 218.042969 301.277344 217.921875 C 301.136719 217.828125 299.90625 216.882812 298.582031 215.792969 C 297.257812 214.730469 295.648438 213.59375 295.035156 213.261719 C 293.285156 212.386719 288.625 210.472656 284.4375 208.910156 C 282.355469 208.128906 278.214844 206.523438 275.210938 205.316406 C 262.390625 200.183594 252.976562 197.652344 239.945312 195.855469 C 237.082031 195.476562 231.878906 194.554688 228.355469 193.84375 C 224.851562 193.132812 221.921875 192.542969 221.824219 192.542969 C 221.707031 192.542969 221.636719 173.195312 221.636719 149.539062 L 221.636719 106.5625 L 222.652344 105.519531 C 223.199219 104.953125 224.664062 103.699219 225.917969 102.753906 C 229.914062 99.722656 230.980469 98.023438 230.933594 94.734375 C 230.886719 91.917969 229.820312 89.175781 226.699219 83.925781 C 224.878906 80.847656 223.292969 77.726562 222.347656 75.335938 L 221.636719 73.539062 L 221.636719 31.933594 L 217.191406 31.933594 C 214.730469 31.933594 212.648438 32.003906 212.578125 32.097656 Z M 212.292969 190.601562 C 212.222656 190.671875 211.300781 190.601562 210.234375 190.4375 C 209.148438 190.273438 206.425781 190.082031 204.203125 190.011719 L 200.113281 189.871094 L 200.253906 188.898438 C 200.5625 186.839844 201.601562 182.960938 203.210938 177.972656 C 206.167969 168.816406 210.992188 147.929688 211.984375 140.03125 C 212.246094 137.855469 212.292969 140.8125 212.363281 164.015625 C 212.386719 178.585938 212.363281 190.53125 212.292969 190.601562 Z M 224.121094 236.515625 C 229.65625 238.667969 233.441406 241.007812 248.058594 251.441406 L 250.730469 253.332031 L 250.117188 254.703125 C 249.785156 255.4375 248.554688 258.441406 247.394531 261.375 C 241.625 275.945312 239.449219 280.0625 234.363281 286.210938 C 231.476562 289.6875 229.890625 292.148438 228.96875 294.492188 C 227.976562 297.09375 227.621094 298.9375 227.21875 303.855469 C 226.675781 310.054688 226.105469 311.78125 223.550781 314.949219 C 222.820312 315.851562 222.109375 316.75 221.945312 316.960938 C 221.707031 317.246094 221.660156 308.613281 221.636719 276.417969 C 221.636719 243.824219 221.707031 235.570312 221.945312 235.664062 C 222.085938 235.710938 223.078125 236.113281 224.121094 236.515625 Z M 225.539062 391.257812 C 226.839844 391.398438 229.75 391.992188 232.019531 392.558594 C 239.589844 394.476562 242.855469 394.78125 245.335938 393.835938 C 246 393.578125 246.566406 393.386719 246.589844 393.433594 C 246.734375 393.671875 248.414062 401.429688 248.625 402.824219 C 249.121094 406.136719 248.53125 409 246.664062 412.167969 C 242.972656 418.414062 235.308594 428.535156 228.992188 435.539062 C 227.480469 437.21875 225.207031 439.75 223.953125 441.167969 L 221.636719 443.746094 L 221.636719 390.785156 L 222.417969 390.878906 C 222.820312 390.949219 224.238281 391.09375 225.539062 391.257812 Z M 225.539062 391.257812 "/>
</g>
</svg>
